<svg xmlns="http://www.w3.org/2000/svg" xmlns:xlink="http://www.w3.org/1999/xlink" width="500" zoomAndPan="magnify" viewBox="0 0 375 374.999991" height="500" preserveAspectRatio="xMidYMid meet" version="1.0"><defs><clipPath id="0b8342087f"><path d="M 47.089844 211 L 316.339844 211 L 316.339844 310.652344 L 47.089844 310.652344 Z M 47.089844 211 " clip-rule="nonzero"/></clipPath><clipPath id="91e7d3ef2e"><path d="M 27.070312 173.109375 L 72 173.109375 L 72 215.859375 L 27.070312 215.859375 Z M 27.070312 173.109375 " clip-rule="nonzero"/></clipPath><clipPath id="9d03758180"><path d="M 288.847656 173.109375 L 333.847656 173.109375 L 333.847656 215.859375 L 288.847656 215.859375 Z M 288.847656 173.109375 " clip-rule="nonzero"/></clipPath></defs><path fill="#3f4446" d="M 144.742188 272.582031 C 127.554688 202.84375 200.582031 131.933594 255.984375 99.59375 C 196.855469 123.792969 59.144531 199.742188 144.742188 272.582031 Z M 144.742188 272.582031 " fill-opacity="1" fill-rule="evenodd"/><path fill="#3f4446" d="M 115.207031 206.421875 C 104.113281 181.828125 83.625 162.097656 56.121094 145.949219 C 82.675781 157.144531 106.042969 170.457031 124.121094 187.308594 C 120.21875 193.53125 117.179688 199.90625 115.207031 206.421875 Z M 115.207031 206.421875 " fill-opacity="1" fill-rule="evenodd"/><path fill="#3f4446" d="M 141.621094 150.398438 C 141.785156 151.402344 141.847656 152.410156 141.8125 153.425781 C 141.773438 154.441406 141.640625 155.445312 141.40625 156.433594 C 141.171875 157.421875 140.84375 158.378906 140.421875 159.304688 C 140 160.226562 139.492188 161.101562 138.898438 161.925781 C 138.304688 162.75 137.636719 163.511719 136.890625 164.203125 C 136.148438 164.894531 135.34375 165.507812 134.480469 166.042969 C 133.617188 166.578125 132.707031 167.019531 131.753906 167.375 C 130.804688 167.730469 129.824219 167.992188 128.824219 168.152344 C 127.820312 168.316406 126.808594 168.378906 125.792969 168.34375 C 124.777344 168.308594 123.777344 168.171875 122.789062 167.9375 C 121.800781 167.707031 120.84375 167.378906 119.917969 166.957031 C 118.992188 166.535156 118.117188 166.027344 117.292969 165.429688 C 116.46875 164.835938 115.710938 164.167969 115.019531 163.425781 C 114.328125 162.679688 113.714844 161.875 113.179688 161.011719 C 112.644531 160.148438 112.199219 159.238281 111.84375 158.289062 C 111.488281 157.335938 111.230469 156.359375 111.066406 155.355469 C 110.90625 154.351562 110.84375 153.34375 110.878906 152.328125 C 110.914062 151.3125 111.050781 150.308594 111.28125 149.320312 C 111.515625 148.332031 111.84375 147.375 112.265625 146.449219 C 112.6875 145.527344 113.195312 144.652344 113.789062 143.828125 C 114.386719 143.003906 115.054688 142.242188 115.796875 141.550781 C 116.539062 140.859375 117.34375 140.246094 118.210938 139.710938 C 119.074219 139.175781 119.980469 138.734375 120.933594 138.378906 C 121.886719 138.023438 122.863281 137.761719 123.867188 137.601562 C 124.871094 137.4375 125.878906 137.375 126.894531 137.410156 C 127.910156 137.445312 128.914062 137.582031 129.902344 137.816406 C 130.890625 138.046875 131.847656 138.375 132.773438 138.796875 C 133.695312 139.21875 134.570312 139.726562 135.394531 140.324219 C 136.21875 140.917969 136.976562 141.585938 137.671875 142.328125 C 138.363281 143.074219 138.976562 143.878906 139.511719 144.742188 C 140.042969 145.605469 140.488281 146.515625 140.84375 147.464844 C 141.199219 148.417969 141.457031 149.394531 141.621094 150.398438 Z M 141.621094 150.398438 " fill-opacity="1" fill-rule="nonzero"/><path fill="#1877f2" d="M 213.238281 272.582031 C 222.53125 234.847656 205.417969 196.777344 178.980469 164.65625 C 183.042969 159.714844 187.324219 154.921875 191.769531 150.289062 C 235.742188 184.355469 264.429688 229.015625 213.238281 272.582031 Z M 166.207031 150.304688 C 170.359375 147.089844 174.625 143.976562 178.980469 140.964844 C 152.238281 122.507812 122.425781 107.96875 101.980469 99.609375 C 122.820312 111.753906 146.144531 129.363281 166.207031 150.304688 Z M 166.207031 150.304688 " fill-opacity="1" fill-rule="evenodd"/><path fill="#1877f2" d="M 242.785156 206.421875 C 253.863281 181.839844 274.367188 162.097656 301.871094 145.964844 C 275.316406 157.160156 251.949219 170.472656 233.871094 187.320312 C 237.757812 193.53125 240.8125 199.90625 242.785156 206.421875 Z M 242.785156 206.421875 " fill-opacity="1" fill-rule="evenodd"/><path fill="#1877f2" d="M 235.210938 137.828125 C 236.199219 138.0625 237.15625 138.390625 238.082031 138.8125 C 239.007812 139.234375 239.878906 139.742188 240.703125 140.335938 C 241.527344 140.929688 242.289062 141.601562 242.980469 142.34375 C 243.671875 143.085938 244.285156 143.890625 244.820312 144.757812 C 245.355469 145.621094 245.800781 146.527344 246.15625 147.480469 C 246.511719 148.433594 246.769531 149.410156 246.929688 150.414062 C 247.09375 151.417969 247.15625 152.425781 247.121094 153.441406 C 247.085938 154.457031 246.949219 155.460938 246.71875 156.449219 C 246.484375 157.4375 246.15625 158.394531 245.734375 159.320312 C 245.3125 160.242188 244.804688 161.117188 244.210938 161.941406 C 243.613281 162.765625 242.945312 163.523438 242.203125 164.21875 C 241.457031 164.910156 240.65625 165.523438 239.789062 166.058594 C 238.925781 166.589844 238.019531 167.035156 237.066406 167.390625 C 236.113281 167.746094 235.136719 168.003906 234.132812 168.167969 C 233.128906 168.332031 232.121094 168.394531 231.105469 168.359375 C 230.089844 168.320312 229.085938 168.1875 228.097656 167.953125 C 227.109375 167.71875 226.152344 167.390625 225.226562 166.96875 C 224.304688 166.546875 223.429688 166.039062 222.605469 165.445312 C 221.78125 164.851562 221.023438 164.183594 220.328125 163.4375 C 219.636719 162.695312 219.023438 161.890625 218.488281 161.027344 C 217.957031 160.164062 217.511719 159.253906 217.15625 158.300781 C 216.800781 157.351562 216.539062 156.371094 216.378906 155.371094 C 216.214844 154.367188 216.152344 153.355469 216.1875 152.339844 C 216.222656 151.328125 216.359375 150.324219 216.59375 149.335938 C 216.828125 148.347656 217.152344 147.390625 217.574219 146.464844 C 218 145.539062 218.507812 144.667969 219.101562 143.839844 C 219.695312 143.015625 220.363281 142.257812 221.105469 141.566406 C 221.851562 140.875 222.65625 140.261719 223.519531 139.726562 C 224.382812 139.191406 225.292969 138.746094 226.242188 138.390625 C 227.195312 138.035156 228.171875 137.777344 229.175781 137.613281 C 230.179688 137.453125 231.1875 137.390625 232.203125 137.425781 C 233.21875 137.460938 234.222656 137.597656 235.210938 137.828125 Z M 235.210938 137.828125 " fill-opacity="1" fill-rule="nonzero"/><g clip-path="url(#0b8342087f)"><path fill="#3f4446" d="M 181.671875 310.417969 C 255.996094 310.417969 316.25 285.6875 316.25 255.191406 C 316.25 237.230469 295.367188 221.285156 263.027344 211.203125 C 289.59375 220.65625 306.417969 234.640625 306.417969 250.265625 C 306.417969 278.71875 250.5625 301.78125 181.671875 301.78125 C 112.765625 301.78125 56.925781 278.71875 56.925781 250.265625 C 56.925781 234.65625 73.746094 220.65625 100.3125 211.214844 C 67.972656 221.285156 47.089844 237.230469 47.089844 255.191406 C 47.089844 285.6875 107.34375 310.417969 181.671875 310.417969 Z M 181.671875 310.417969 " fill-opacity="1" fill-rule="evenodd"/></g><path fill="#3f4446" d="M 197.496094 96.820312 C 197.59375 97.421875 197.660156 98.023438 197.699219 98.632812 C 197.734375 99.242188 197.746094 99.847656 197.722656 100.457031 C 197.699219 101.066406 197.648438 101.671875 197.570312 102.277344 C 197.488281 102.882812 197.375 103.480469 197.238281 104.074219 C 197.097656 104.664062 196.929688 105.25 196.730469 105.828125 C 196.53125 106.402344 196.308594 106.96875 196.054688 107.523438 C 195.800781 108.078125 195.523438 108.617188 195.214844 109.144531 C 194.910156 109.671875 194.578125 110.183594 194.222656 110.675781 C 193.867188 111.171875 193.484375 111.644531 193.082031 112.101562 C 192.679688 112.558594 192.253906 112.996094 191.808594 113.410156 C 191.363281 113.828125 190.898438 114.21875 190.414062 114.589844 C 189.929688 114.957031 189.429688 115.304688 188.910156 115.625 C 188.390625 115.945312 187.859375 116.238281 187.3125 116.503906 C 186.765625 116.773438 186.207031 117.015625 185.632812 117.226562 C 185.0625 117.441406 184.484375 117.625 183.894531 117.78125 C 183.304688 117.9375 182.710938 118.0625 182.109375 118.160156 C 181.507812 118.257812 180.902344 118.328125 180.296875 118.363281 C 179.6875 118.402344 179.078125 118.410156 178.46875 118.390625 C 177.859375 118.367188 177.253906 118.316406 176.652344 118.234375 C 176.046875 118.152344 175.449219 118.042969 174.855469 117.902344 C 174.261719 117.761719 173.675781 117.59375 173.101562 117.398438 C 172.523438 117.199219 171.960938 116.972656 171.40625 116.722656 C 170.851562 116.46875 170.308594 116.1875 169.785156 115.882812 C 169.257812 115.574219 168.746094 115.246094 168.25 114.886719 C 167.757812 114.53125 167.28125 114.152344 166.824219 113.75 C 166.367188 113.347656 165.933594 112.921875 165.515625 112.476562 C 165.101562 112.03125 164.710938 111.566406 164.339844 111.082031 C 163.96875 110.597656 163.625 110.09375 163.304688 109.578125 C 162.984375 109.058594 162.691406 108.527344 162.421875 107.976562 C 162.15625 107.429688 161.914062 106.871094 161.699219 106.300781 C 161.488281 105.730469 161.304688 105.148438 161.148438 104.5625 C 160.992188 103.972656 160.863281 103.378906 160.765625 102.777344 C 160.667969 102.175781 160.601562 101.570312 160.5625 100.960938 C 160.527344 100.351562 160.515625 99.746094 160.539062 99.136719 C 160.558594 98.527344 160.613281 97.921875 160.691406 97.316406 C 160.773438 96.714844 160.886719 96.113281 161.023438 95.523438 C 161.164062 94.929688 161.332031 94.34375 161.53125 93.765625 C 161.730469 93.191406 161.953125 92.625 162.207031 92.070312 C 162.460938 91.515625 162.738281 90.976562 163.046875 90.449219 C 163.351562 89.921875 163.683594 89.414062 164.039062 88.917969 C 164.394531 88.425781 164.777344 87.949219 165.179688 87.492188 C 165.582031 87.035156 166.007812 86.597656 166.453125 86.183594 C 166.898438 85.769531 167.363281 85.375 167.847656 85.007812 C 168.332031 84.636719 168.832031 84.292969 169.351562 83.972656 C 169.871094 83.652344 170.402344 83.355469 170.949219 83.089844 C 171.496094 82.820312 172.054688 82.582031 172.625 82.367188 C 173.199219 82.15625 173.777344 81.96875 174.367188 81.8125 C 174.957031 81.65625 175.550781 81.53125 176.152344 81.433594 C 176.753906 81.335938 177.359375 81.269531 177.964844 81.230469 C 178.574219 81.191406 179.183594 81.183594 179.792969 81.207031 C 180.402344 81.226562 181.007812 81.277344 181.609375 81.359375 C 182.214844 81.441406 182.8125 81.550781 183.40625 81.691406 C 184 81.832031 184.585938 82 185.160156 82.199219 C 185.738281 82.394531 186.300781 82.621094 186.855469 82.875 C 187.410156 83.125 187.953125 83.40625 188.476562 83.710938 C 189.003906 84.019531 189.515625 84.347656 190.011719 84.707031 C 190.503906 85.0625 190.980469 85.441406 191.4375 85.84375 C 191.894531 86.246094 192.328125 86.671875 192.746094 87.117188 C 193.160156 87.5625 193.550781 88.027344 193.921875 88.515625 C 194.292969 89 194.636719 89.5 194.957031 90.019531 C 195.277344 90.535156 195.570312 91.070312 195.839844 91.617188 C 196.105469 92.164062 196.347656 92.722656 196.5625 93.292969 C 196.773438 93.863281 196.957031 94.445312 197.113281 95.03125 C 197.269531 95.621094 197.398438 96.21875 197.496094 96.820312 Z M 197.496094 96.820312 " fill-opacity="1" fill-rule="nonzero"/><g clip-path="url(#91e7d3ef2e)"><path fill="#3f4446" d="M 49.453125 173.109375 L 55.214844 186.066406 C 55.4375 186.566406 55.785156 186.996094 56.226562 187.316406 C 56.667969 187.636719 57.183594 187.835938 57.726562 187.890625 L 71.832031 189.371094 L 61.289062 198.855469 C 60.882812 199.21875 60.582031 199.683594 60.414062 200.203125 C 60.246094 200.71875 60.214844 201.273438 60.328125 201.804688 L 63.285156 215.675781 L 51.003906 208.582031 C 50.53125 208.308594 49.996094 208.164062 49.453125 208.164062 C 48.910156 208.164062 48.375 208.308594 47.902344 208.582031 L 35.621094 215.675781 L 38.578125 201.804688 C 38.691406 201.273438 38.660156 200.71875 38.492188 200.203125 C 38.324219 199.683594 38.023438 199.21875 37.617188 198.855469 L 27.074219 189.371094 L 41.179688 187.890625 C 41.722656 187.835938 42.238281 187.636719 42.679688 187.316406 C 43.121094 186.996094 43.46875 186.566406 43.691406 186.066406 Z M 49.453125 173.109375 " fill-opacity="1" fill-rule="evenodd"/></g><g clip-path="url(#9d03758180)"><path fill="#1877f2" d="M 311.230469 173.109375 L 316.992188 186.066406 C 317.214844 186.566406 317.5625 186.996094 318.003906 187.316406 C 318.445312 187.636719 318.960938 187.835938 319.503906 187.890625 L 333.609375 189.371094 L 323.066406 198.855469 C 322.660156 199.21875 322.359375 199.683594 322.191406 200.203125 C 322.023438 200.71875 321.992188 201.273438 322.105469 201.804688 L 325.058594 215.675781 L 312.78125 208.582031 C 312.308594 208.308594 311.773438 208.164062 311.230469 208.164062 C 310.683594 208.164062 310.148438 208.308594 309.679688 208.582031 L 297.398438 215.675781 L 300.351562 201.804688 C 300.464844 201.273438 300.4375 200.71875 300.269531 200.203125 C 300.101562 199.683594 299.800781 199.21875 299.394531 198.855469 L 288.851562 189.371094 L 302.957031 187.890625 C 303.5 187.835938 304.015625 187.636719 304.457031 187.316406 C 304.898438 186.996094 305.246094 186.566406 305.464844 186.066406 Z M 311.230469 173.109375 " fill-opacity="1" fill-rule="evenodd"/></g></svg>